HIERARCHY
ROOT Hips
{
	OFFSET -211.153198 91.653587 -35.738949
	CHANNELS 6 Xposition Yposition Zposition Zrotation Yrotation Xrotation 
	JOINT LeftUpLeg
	{
		OFFSET 0.103455 1.857827 10.548507
		CHANNELS 3 Zrotation Yrotation Xrotation
		JOINT LeftLeg
		{
			OFFSET 43.500000 -0.000031 0.000008
			CHANNELS 3 Zrotation Yrotation Xrotation
			JOINT LeftFoot
			{
				OFFSET 42.372192 0.000011 -0.000014
				CHANNELS 3 Zrotation Yrotation Xrotation
				JOINT LeftToe
				{
					OFFSET 17.299997 -0.000002 0.000013
					CHANNELS 3 Zrotation Yrotation Xrotation
					End Site
					{
						OFFSET 0.000000 0.000000 0.000000
					}
				}
			}
		}
	}
	JOINT RightUpLeg
	{
		OFFSET 0.103457 1.857826 -10.548499
		CHANNELS 3 Zrotation Yrotation Xrotation
		JOINT RightLeg
		{
			OFFSET 43.500046 -0.000019 0.000015
			CHANNELS 3 Zrotation Yrotation Xrotation
			JOINT RightFoot
			{
				OFFSET 42.372261 -0.000004 0.000013
				CHANNELS 3 Zrotation Yrotation Xrotation
				JOINT RightToe
				{
					OFFSET 17.299992 -0.000006 0.000004
					CHANNELS 3 Zrotation Yrotation Xrotation
					End Site
					{
						OFFSET 0.000000 0.000000 0.000000
					}
				}
			}
		}
	}
	JOINT Spine
	{
		OFFSET 6.901968 -2.603730 -0.000002
		CHANNELS 3 Zrotation Yrotation Xrotation
		JOINT Spine1
		{
			OFFSET 12.588100 -0.000001 0.000009
			CHANNELS 3 Zrotation Yrotation Xrotation
			JOINT Spine2
			{
				OFFSET 12.343201 0.000005 -0.000005
				CHANNELS 3 Zrotation Yrotation Xrotation
				JOINT Neck
				{
					OFFSET 25.832893 -0.000008 -0.000006
					CHANNELS 3 Zrotation Yrotation Xrotation
					JOINT Head
					{
						OFFSET 11.766606 0.000005 0.000008
						CHANNELS 3 Zrotation Yrotation Xrotation
						End Site
						{
							OFFSET 0.000000 0.000000 0.000000
						}
					}
				}
				JOINT LeftShoulder
				{
					OFFSET 19.745903 -1.480373 6.000100
					CHANNELS 3 Zrotation Yrotation Xrotation
					JOINT LeftArm
					{
						OFFSET 11.284123 -0.000007 -0.000024
						CHANNELS 3 Zrotation Yrotation Xrotation
						JOINT LeftForeArm
						{
							OFFSET 33.000053 0.000004 0.000036
							CHANNELS 3 Zrotation Yrotation Xrotation
							JOINT LeftHand
							{
								OFFSET 25.200006 0.000021 -0.000003
								CHANNELS 3 Zrotation Yrotation Xrotation
								End Site
								{
									OFFSET 0.000000 0.000000 0.000000
								}
							}
						}
					}
				}
				JOINT RightShoulder
				{
					OFFSET 19.746101 -1.480381 -6.000079
					CHANNELS 3 Zrotation Yrotation Xrotation
					JOINT RightArm
					{
						OFFSET 11.284133 -0.000015 -0.000008
						CHANNELS 3 Zrotation Yrotation Xrotation
						JOINT RightForeArm
						{
							OFFSET 33.000099 0.000016 0.000006
							CHANNELS 3 Zrotation Yrotation Xrotation
							JOINT RightHand
							{
								OFFSET 25.199781 0.000142 0.000425
								CHANNELS 3 Zrotation Yrotation Xrotation
								End Site
								{
									OFFSET 0.000000 0.000000 0.000000
								}
							}
						}
					}
				}
			}
		}
	}
}
MOTION
Frames: 15
Frame Time: 0.033333
-44.879532 37.325169 -39.779369 148.911894 -3.781788 37.377640 147.607068 -19.963593 166.065490 -82.530111 -1.999874 5.371869 52.036616 -10.565663 -11.899735 21.454545 0.003086 0.000010 88.194811 1.216507 -165.902126 -133.580906 -4.543588 -19.281149 71.758883 20.097753 15.766969 21.454560 -0.003101 -0.000014 15.129953 4.090588 -1.587601 20.211151 8.394952 -2.440102 19.889629 8.380201 -2.491058 9.965883 -13.129461 -3.141975 -30.610753 3.159016 -6.194687 7.973025 -77.028558 170.239023 -87.157626 -22.177428 -33.700389 -87.071969 -11.692772 2.995995 -8.308053 -17.624927 94.692568 162.547601 78.150096 -16.265945 -39.546502 -39.640926 32.658987 -108.571908 -0.144836 -3.164226 -56.764910 17.587351 -83.429900 
-47.655159 38.903801 -38.484200 150.777888 -0.094410 37.760619 141.447890 -19.703800 171.096198 -82.713365 -3.382901 8.136571 53.565967 -10.027852 -7.380695 21.454550 0.003094 0.000003 93.397325 2.952894 -172.393606 -131.264201 -4.406011 -19.848552 68.456459 20.528975 14.528137 21.454551 -0.003107 -0.000019 15.270464 3.947827 -1.299597 20.512141 8.062916 -1.881038 20.190780 8.051542 -1.929978 10.705806 -13.525379 -4.691139 -30.925235 3.771662 -8.122856 15.968977 -77.842081 162.374032 -86.487011 -19.212786 -35.353209 -89.470130 -9.557438 2.951460 -10.293557 -17.776177 96.062274 166.433487 77.845305 -12.327066 -38.281646 -39.495412 32.462192 -107.612082 0.098458 -3.139123 -57.842154 15.636895 -85.163826 
-50.328758 40.116840 -37.454201 152.373392 3.637736 37.923290 135.784707 -20.707107 172.633851 -81.062208 -3.162734 5.874298 56.913204 -7.464842 -6.296298 21.454555 0.003092 -0.000004 98.108352 4.767810 -179.069119 -128.517003 -4.320427 -21.667351 63.698016 21.149643 11.073898 21.454558 -0.003108 -0.000017 15.401378 3.643332 -1.168164 20.779222 7.436683 -1.664697 20.458344 7.426630 -1.709794 10.343990 -14.774881 -5.684283 -31.582590 4.382947 -9.693108 23.288903 -78.073604 155.167022 -85.922516 -18.093441 -33.377461 -88.877031 -9.720942 2.936597 -12.269094 -18.071799 96.295087 167.345823 77.324319 -11.417795 -38.234675 -40.083566 34.458899 -105.757317 0.436721 -3.081062 -59.138612 14.339125 -86.510589 
-52.531891 40.888988 -36.812679 153.460608 6.474940 38.753940 128.697853 -22.034610 174.268124 -78.455105 -2.685488 0.296298 62.216569 -3.161613 -6.856889 21.454550 0.003089 -0.000002 101.834555 7.236204 175.642221 -125.831195 -4.337714 -24.986259 61.109955 22.543031 7.928724 21.454557 -0.003112 -0.000015 15.370099 3.368857 -1.407957 20.698342 6.934731 -2.192993 20.377951 6.921494 -2.234978 9.790918 -15.774529 -6.097350 -32.149898 5.229901 -10.781102 28.196056 -78.209812 150.333010 -85.231472 -17.610936 -29.542354 -86.875102 -10.794471 2.923487 -13.605422 -18.250387 95.721522 165.741548 76.295276 -13.090850 -39.528979 -40.660444 36.964028 -102.605001 1.184269 -2.993463 -60.648863 13.536698 -87.572328 
-54.739410 41.608879 -36.510010 153.846200 9.192633 40.394309 120.789546 -22.922304 176.614745 -75.689773 -3.023955 -5.760256 67.600964 1.241836 -7.946855 21.454541 0.003092 -0.000003 105.989694 10.121801 173.307157 -123.485189 -4.229356 -25.217951 59.182899 22.320531 6.659306 21.454557 -0.003103 -0.000021 15.477420 2.999655 -1.939543 20.881782 6.299594 -3.309577 20.562172 6.279638 -3.347630 8.345774 -15.092497 -6.325126 -32.550469 4.570487 -10.832367 35.181997 -77.436020 143.474967 -84.349933 -17.203558 -25.395128 -83.938633 -12.175813 2.891158 -13.971079 -19.227293 95.091881 165.835326 75.033774 -13.044198 -42.200436 -40.450327 39.579041 -98.171921 2.248056 -2.869833 -62.005803 13.050191 -87.731430 
-56.631031 42.322281 -36.179428 153.773895 12.866222 42.588958 113.482104 -22.741304 179.119020 -74.737583 -4.872516 -4.555209 71.657215 0.287913 -9.200202 21.454550 0.003086 0.000001 110.633205 13.537295 171.891136 -121.463399 -4.141770 -24.309603 60.179376 23.009610 9.877731 21.454560 -0.003104 -0.000018 15.848583 2.449183 -2.769393 21.588869 5.371581 -5.037710 21.270596 5.341229 -5.069999 6.824757 -14.193553 -6.429665 -32.147269 4.283476 -10.848733 44.514071 -75.892178 134.354001 -83.432229 -16.714702 -21.589499 -79.949543 -14.098028 2.851946 -14.355502 -19.043821 94.075624 166.185428 74.564724 -12.704592 -45.590949 -39.472111 40.477894 -92.888640 4.470080 -2.788538 -62.579832 13.429459 -87.846594 
-58.035370 43.097172 -35.663700 153.267300 16.929529 44.300163 105.674119 -22.550395 179.098543 -78.429163 -6.086136 4.156462 75.870083 -5.280778 -8.089796 21.454548 0.003103 0.000004 115.266081 16.998710 170.086081 -119.572215 -4.101467 -24.608717 60.489337 23.719174 11.017951 21.454567 -0.003104 -0.000020 16.404687 1.879811 -3.623651 22.680449 4.432851 -6.812835 22.363779 4.391858 -6.839325 6.016266 -13.297480 -6.242600 -32.047613 3.661308 -10.299148 48.730975 -74.758954 130.241913 -83.581496 -16.178456 -18.737362 -75.528164 -16.225673 2.810902 -14.560778 -18.433139 93.213367 163.874215 74.733464 -15.059063 -48.682662 -37.602821 38.103682 -87.285474 9.276236 -2.875286 -62.848361 15.197535 -88.125614 
-59.008202 43.988770 -34.877468 152.549898 20.987701 44.827583 97.536823 -22.137492 174.338284 -86.245864 -4.335135 7.502688 79.433529 -8.527970 -12.222049 21.454553 0.003095 -0.000001 119.346177 20.158101 167.658809 -117.761286 -4.104812 -25.928286 60.615374 24.394126 10.350272 21.454565 -0.003114 -0.000020 17.032863 1.389760 -4.218909 23.936123 3.621312 -8.062477 23.620775 3.572850 -8.083995 5.301965 -14.086709 -6.397306 -31.626341 3.856377 -10.726665 48.739974 -73.566677 130.296992 -84.033095 -17.036303 -16.091034 -70.217705 -18.424922 2.741078 -14.805992 -18.747305 91.125911 160.767230 75.891898 -18.178209 -51.286326 -35.356116 35.842357 -81.997814 13.331991 -2.926649 -62.277952 17.966135 -88.107337 
-59.884510 45.046108 -34.248692 151.505713 24.342299 43.620433 89.220849 -22.884399 166.720505 -95.597691 -1.822089 6.217332 81.495509 -7.874999 -14.045183 21.454550 0.003100 0.000005 122.571952 21.455205 165.258189 -115.528005 -4.190297 -27.167784 60.635701 25.629045 10.957395 21.454560 -0.003100 -0.000020 17.588220 0.905780 -4.590379 25.061998 2.783007 -8.877819 24.747647 2.729692 -8.894264 5.993853 -14.106543 -6.288572 -31.596325 3.030527 -10.105883 48.192995 -72.583232 130.894032 -83.779742 -18.155912 -14.417807 -65.147949 -19.403657 2.601662 -15.478815 -19.032942 88.109065 155.255131 76.363557 -23.767262 -53.519757 -32.796434 33.966244 -76.136112 17.033349 -2.931950 -61.423215 20.383171 -86.732447 
-60.823471 46.455521 -33.637211 149.933198 26.550088 40.910002 81.740740 -23.672196 157.833937 -103.663509 0.253739 7.139459 82.537884 -8.657022 -14.812952 21.454557 0.003086 -0.000000 125.357549 20.800397 162.947919 -112.562802 -4.222659 -28.165252 61.706483 27.594698 13.985340 21.454563 -0.003104 -0.000019 18.042570 0.592612 -4.761668 25.985709 2.237661 -9.270123 25.671870 2.182016 -9.283287 6.511037 -14.399519 -5.939671 -31.633229 3.451669 -9.930666 48.112071 -72.121525 131.014995 -83.019583 -19.198757 -12.874559 -60.244980 -20.113825 2.458477 -16.214275 -20.050804 84.087477 147.090815 76.724082 -32.042156 -55.035813 -29.834266 31.456054 -70.023284 19.895301 -2.872793 -60.419218 23.616122 -84.571341 
-61.968521 48.160839 -32.994331 147.868391 27.481751 36.945012 76.694002 -23.718909 147.719561 -109.339403 0.958209 9.327575 85.297725 -10.009691 -15.512309 21.454551 0.003099 0.000000 128.317712 18.573591 161.051749 -108.507800 -4.167189 -29.167548 64.572001 29.621216 18.225043 21.454563 -0.003098 -0.000014 18.511592 0.450355 -4.689753 26.934467 1.977628 -9.147168 26.620570 1.922718 -9.158778 5.137047 -14.535302 -5.226763 -30.859017 3.455346 -9.321889 46.307965 -71.852729 132.818001 -82.322877 -20.556271 -10.941337 -55.525500 -20.972898 2.341781 -16.961661 -22.124139 79.788528 134.803223 77.274834 -44.450933 -56.446176 -26.911331 29.789815 -63.571070 21.792765 -2.739934 -59.269977 27.632527 -81.657152 
-63.324051 50.234520 -32.636059 146.205704 26.408769 32.187482 74.744495 -22.437101 135.837491 -111.993505 1.343201 9.435037 88.974217 -9.416416 -14.867152 21.454550 0.003093 -0.000001 130.320009 15.625396 160.510593 -102.837910 -3.988008 -30.623782 67.335085 31.294120 21.253349 21.454558 -0.003107 -0.000019 18.715992 0.374760 -4.349999 27.356221 1.764775 -8.489175 27.041743 1.713797 -8.499550 4.262566 -15.549873 -4.729833 -30.664110 4.259967 -9.452622 47.447999 -71.683286 131.732055 -81.624702 -21.172376 -9.660956 -50.649941 -20.945200 2.169659 -18.401909 -23.663226 77.048605 125.108712 76.245525 -54.322434 -57.122528 -23.064314 27.073524 -56.255955 22.603113 -2.512216 -56.863784 32.286482 -77.156918 
-65.018173 52.553761 -32.646030 144.791391 22.587781 26.450970 75.851600 -19.547892 126.843320 -110.140509 1.183465 8.507590 86.001712 -8.775714 -12.999050 21.454553 0.003094 0.000002 131.851092 11.663408 162.393034 -94.987509 -3.260782 -32.229597 69.189816 32.946100 23.779543 21.454562 -0.003115 -0.000017 18.705050 0.436106 -3.761450 27.344010 1.746446 -7.314360 27.028575 1.702494 -7.324671 3.213870 -18.142430 -4.082905 -30.547038 5.519611 -9.951106 50.454000 -71.830846 128.812955 -80.043294 -21.417880 -7.886914 -45.986608 -20.641723 1.999123 -19.425058 -25.266314 74.834360 115.968689 74.542970 -63.675183 -58.598317 -18.985819 24.694897 -47.636977 21.798176 -2.157377 -52.180883 38.233183 -68.042672 
-66.981216 55.263660 -33.086700 143.586901 16.724470 20.602871 79.172090 -16.260300 125.169473 -103.699210 0.598040 -0.191722 97.968805 1.276949 13.054671 21.454553 0.003090 0.000001 134.264840 7.402798 166.588546 -84.666677 -2.111172 -33.833964 70.092419 34.757917 26.322736 21.454555 -0.003111 -0.000016 18.746757 0.501092 -3.129990 27.437570 1.728041 -6.052907 27.121249 1.691655 -6.063158 0.392555 -20.177017 -3.146688 -29.712197 6.905855 -10.418600 52.781970 -71.938073 126.542000 -77.644566 -21.178864 -7.349892 -42.088920 -19.793299 1.828005 -20.421904 -25.459043 74.358856 110.180083 72.886711 -69.640083 -62.076987 -14.467994 22.513220 -38.341086 18.903857 -1.696351 -40.791628 43.052004 -50.934654 
-69.309723 58.131969 -33.957470 142.790610 9.882555 15.822859 78.731406 -17.022093 132.749152 -101.030505 0.818536 -1.975025 104.031902 1.614799 10.915658 21.454553 0.003090 0.000000 137.917529 4.116803 172.263942 -73.213126 0.444949 -34.639147 67.520088 35.662576 25.590648 21.454560 -0.003112 -0.000013 18.718753 0.472579 -2.887428 27.387580 1.613270 -5.581819 27.070989 1.579717 -5.591398 -2.733671 -23.113118 -1.806935 -28.402812 9.110758 -11.155759 57.322998 -71.819152 122.105969 -72.980155 -20.312566 -6.029845 -38.712399 -18.966891 1.682664 -21.065582 -26.406075 73.393299 102.751692 72.028129 -77.163352 -67.862909 -11.135700 19.956235 -31.498370 14.588593 -1.259434 -22.100595 44.426993 -29.005016 
